<?xml version="1.0" encoding="UTF-8" standalone="no"?>
<svg
   version="1.0"
   width="1278.9956pt"
   height="325.37173pt"
   viewBox="0 0 1278.9956 325.37173"
   preserveAspectRatio="xMidYMid meet"
   id="svg8"
   sodipodi:docname="unicredBigode.svg"
   inkscape:version="1.1 (c68e22c387, 2021-05-23)"
   xmlns:inkscape="http://www.inkscape.org/namespaces/inkscape"
   xmlns:sodipodi="http://sodipodi.sourceforge.net/DTD/sodipodi-0.dtd"
   xmlns:xlink="http://www.w3.org/1999/xlink"
   xmlns="http://www.w3.org/2000/svg"
   xmlns:svg="http://www.w3.org/2000/svg">
  <defs
     id="defs12">
    <color-profile
       name="Acer-KG241"
       xlink:href="file:///C:/Windows/system32/spool/drivers/color/Acer%20KG241.icm"
       id="color-profile2218" />
    <linearGradient
       id="linearGradient919">
      <stop
         style="stop-color:#e1f8ff;stop-opacity:1;"
         offset="0"
         id="stop915" />
      <stop
         style="stop-color:#edfcff;stop-opacity:1"
         offset="1"
         id="stop917" />
    </linearGradient>
    <linearGradient
       id="linearGradient837">
      <stop
         style="stop-color:#23d3ff;stop-opacity:1"
         offset="0"
         id="stop833" />
      <stop
         style="stop-color:#90e9ff;stop-opacity:0.96862745"
         offset="1"
         id="stop835" />
    </linearGradient>
    <linearGradient
       id="linearGradient829">
      <stop
         style="stop-color:#91e5ff;stop-opacity:1"
         offset="0"
         id="stop825" />
      <stop
         style="stop-color:#00c6fa;stop-opacity:1"
         offset="1"
         id="stop827" />
    </linearGradient>
    <linearGradient
       xlink:href="#linearGradient829"
       id="linearGradient831"
       x1="62.280739"
       y1="103.5916"
       x2="29.818823"
       y2="258.93726"
       gradientUnits="userSpaceOnUse"
       gradientTransform="rotate(-30,7.9374999,-29.623153)" />
    <linearGradient
       xlink:href="#linearGradient837"
       id="linearGradient839"
       x1="168.92973"
       y1="58.57259"
       x2="115.96797"
       y2="207.63593"
       gradientUnits="userSpaceOnUse" />
    <linearGradient
       xlink:href="#linearGradient919"
       id="linearGradient921"
       x1="0"
       y1="297"
       x2="508"
       y2="11.25001"
       gradientUnits="userSpaceOnUse" />
    <clipPath
       clipPathUnits="userSpaceOnUse"
       id="clipPath32295">
      <path
         style="fill:none;stroke:#000000;stroke-width:0.264583px;stroke-linecap:butt;stroke-linejoin:miter;stroke-opacity:1"
         d="m 187.61923,233.95465 42.2426,-56.19542 -63.85351,-11.81537 65.96398,-22.52258 c -8.46385,-20.57668 -28.64005,-11.02271 -10.02985,-66.463508 34.46274,-55.461873 69.44429,-2.971922 63.56149,-10.80547 21.22412,0.192876 4.22369,40.471578 7.62739,65.150528 l -8.4176,12.11845 55.45312,17.43768 -48.94237,27.96706 c 0,0 47.67112,51.48481 48.94237,54.02727 1.27121,2.54244 -129.02987,34.95885 -129.02987,34.95885 z"
         id="path32297"
         sodipodi:nodetypes="ccccccccccscc"
         clip-path="none" />
    </clipPath>
    <clipPath
       clipPathUnits="userSpaceOnUse"
       id="clipPath32291">
      <path
         style="fill:none;stroke:#000000;stroke-width:0.264583px;stroke-linecap:butt;stroke-linejoin:miter;stroke-opacity:1"
         d="m 34.561116,97.576918 4.183809,-5.56573 -6.324206,-1.170223 6.533232,-2.230692 c -0.83828,-2.037963 -2.83658,-1.091716 -0.993381,-6.582706 3.413273,-5.493078 6.877931,-0.294346 6.295284,-1.0702 2.102088,0.0191 0.418325,4.008403 0.755436,6.452666 l -0.8337,1.20024 5.492211,1.727071 -4.847371,2.769925 c 0,0 4.721463,5.09918 4.847371,5.350992 0.125904,0.251809 -12.779431,3.462409 -12.779431,3.462409 z"
         id="path32293"
         sodipodi:nodetypes="ccccccccccscc"
         clip-path="none" />
    </clipPath>
    <clipPath
       clipPathUnits="userSpaceOnUse"
       id="clipPath32667">
      <path
         style="fill:none;stroke:#000000;stroke-width:0.264583px;stroke-linecap:butt;stroke-linejoin:miter;stroke-opacity:1"
         d="m 34.561116,97.576918 4.183809,-5.56573 -6.324206,-1.170223 6.533232,-2.230692 c -0.83828,-2.037963 -2.83658,-1.091716 -0.993381,-6.582706 3.413273,-5.493078 6.877931,-0.294346 6.295284,-1.0702 2.102088,0.0191 0.418325,4.008403 0.755436,6.452666 l -0.8337,1.20024 5.492211,1.727071 -4.847371,2.769925 c 0,0 4.721463,5.09918 4.847371,5.350992 0.125904,0.251809 -12.779431,3.462409 -12.779431,3.462409 z"
         id="path32669"
         sodipodi:nodetypes="ccccccccccscc"
         clip-path="none" />
    </clipPath>
    <clipPath
       clipPathUnits="userSpaceOnUse"
       id="clipPath32671">
      <path
         style="fill:none;stroke:#000000;stroke-width:0.264583px;stroke-linecap:butt;stroke-linejoin:miter;stroke-opacity:1"
         d="m 187.61923,233.95465 42.2426,-56.19542 -63.85351,-11.81537 65.96398,-22.52258 c -8.46385,-20.57668 -28.64005,-11.02271 -10.02985,-66.463508 34.46274,-55.461873 69.44429,-2.971922 63.56149,-10.80547 21.22412,0.192876 4.22369,40.471578 7.62739,65.150528 l -8.4176,12.11845 55.45312,17.43768 -48.94237,27.96706 c 0,0 47.67112,51.48481 48.94237,54.02727 1.27121,2.54244 -129.02987,34.95885 -129.02987,34.95885 z"
         id="path32673"
         sodipodi:nodetypes="ccccccccccscc"
         clip-path="none" />
    </clipPath>
  </defs>
  <sodipodi:namedview
     id="namedview10"
     pagecolor="#ff7aff"
     bordercolor="#666666"
     borderopacity="1.0"
     inkscape:pageshadow="2"
     inkscape:pageopacity="0.61568627"
     inkscape:pagecheckerboard="0"
     inkscape:document-units="pt"
     showgrid="false"
     inkscape:snap-bbox="true"
     inkscape:snap-bbox-edge-midpoints="true"
     inkscape:snap-nodes="false"
     inkscape:bbox-nodes="true"
     inkscape:snap-others="false"
     inkscape:zoom="0.17358398"
     inkscape:cx="789.24332"
     inkscape:cy="112.33755"
     inkscape:window-width="1360"
     inkscape:window-height="715"
     inkscape:window-x="1912"
     inkscape:window-y="-8"
     inkscape:window-maximized="1"
     inkscape:current-layer="svg8" />
  <metadata
     id="metadata2">
Created by potrace 1.15, written by Peter Selinger 2001-2017
</metadata>
  <g
     transform="matrix(0.1,0,0,-0.1,-0.6,482.67819)"
     fill="#000000"
     stroke="none"
     id="g6"
     style="fill:#000000;fill-opacity:0.23396227">
    <path
       d="m 7585,4823 c -82,-8 -252,-34 -305,-48 -100,-26 -460,-154 -534,-189 -39,-19 -144,-82 -234,-141 l -162,-106 -27,19 c -129,92 -442,263 -613,336 -176,74 -492,126 -780,126 -161,0 -247,-12 -460,-64 -384,-93 -674,-230 -1419,-668 -766,-451 -1269,-713 -1548,-809 -189,-65 -372,-76 -491,-31 -107,41 -197,144 -229,262 -26,98 -24,357 5,461 42,156 175,327 287,368 32,12 81,27 109,32 107,20 253,4 286,-32 10,-11 45,-19 113,-25 l 97,-10 v 58 c 0,55 -1,58 -28,64 -32,8 -62,32 -62,50 0,12 -40,30 -183,80 -206,73 -466,81 -649,18 -117,-40 -364,-177 -374,-208 -3,-10 -31,-45 -61,-78 C 228,4184 144,4044 89,3894 12,3683 6,3651 6,3450 c 1,-193 15,-302 65,-488 71,-271 190,-468 430,-716 97,-101 134,-131 220,-183 288,-170 534,-265 974,-376 212,-54 314,-74 450,-87 55,-6 150,-15 210,-21 299,-30 1076,57 1670,187 486,106 1150,332 1535,523 241,120 414,236 678,455 64,54 112,86 127,86 24,0 74,-35 255,-179 361,-288 704,-466 1260,-651 266,-89 430,-135 740,-208 530,-124 798,-154 1525,-169 532,-10 781,29 1365,218 183,60 433,190 634,330 111,78 245,210 308,304 217,327 277,455 325,691 27,137 25,414 -5,563 -52,257 -162,450 -387,677 -142,143 -327,258 -485,301 -91,24 -290,24 -385,-1 -88,-23 -219,-87 -282,-137 -26,-22 -65,-51 -85,-66 -21,-16 -37,-34 -38,-41 0,-7 -18,-25 -40,-40 -32,-22 -39,-33 -40,-59 0,-17 -4,-35 -10,-38 -5,-3 -10,-22 -10,-41 v -34 h 60 59 l 68,65 c 37,36 92,77 121,92 49,24 60,25 160,21 123,-5 165,-20 268,-93 100,-72 207,-216 245,-330 43,-130 44,-354 3,-477 -19,-60 -83,-118 -192,-175 -142,-76 -195,-88 -377,-88 -159,0 -161,1 -260,37 -133,48 -275,107 -355,148 -111,56 -374,217 -630,383 -709,463 -927,595 -1201,730 -288,140 -460,191 -779,231 -210,26 -499,40 -615,29 z"
       id="path4"
       style="fill:#000000;fill-opacity:0.23396227" />
  </g>
</svg>
