<?xml version="1.0" encoding="UTF-8" standalone="no"?>
<!-- Created with Inkscape (http://www.inkscape.org/) -->

<svg
   width="312.50818"
   height="48.477448"
   viewBox="0 0 82.68446 12.826325"
   version="1.1"
   id="svg828"
   sodipodi:docname="Unicred novembro azul cor branco pequena.svg"
   inkscape:version="1.1 (c68e22c387, 2021-05-23)"
   xmlns:inkscape="http://www.inkscape.org/namespaces/inkscape"
   xmlns:sodipodi="http://sodipodi.sourceforge.net/DTD/sodipodi-0.dtd"
   xmlns:xlink="http://www.w3.org/1999/xlink"
   xmlns="http://www.w3.org/2000/svg"
   xmlns:svg="http://www.w3.org/2000/svg">
  <sodipodi:namedview
     id="namedview830"
     pagecolor="#ff00f9"
     bordercolor="#666666"
     borderopacity="1.0"
     inkscape:pageshadow="2"
     inkscape:pageopacity="0"
     inkscape:pagecheckerboard="0"
     inkscape:document-units="mm"
     showgrid="false"
     inkscape:zoom="2.9718855"
     inkscape:cx="180.02039"
     inkscape:cy="64.437206"
     inkscape:window-width="1920"
     inkscape:window-height="1019"
     inkscape:window-x="-8"
     inkscape:window-y="-8"
     inkscape:window-maximized="1"
     inkscape:current-layer="layer1"
     inkscape:snap-bbox="true"
     inkscape:snap-bbox-edge-midpoints="true"
     units="px" />
  <defs
     id="defs825">
    <linearGradient
       id="linearGradient919">
      <stop
         style="stop-color:#e1f8ff;stop-opacity:1;"
         offset="0"
         id="stop915" />
      <stop
         style="stop-color:#edfcff;stop-opacity:1"
         offset="1"
         id="stop917" />
    </linearGradient>
    <linearGradient
       id="linearGradient837">
      <stop
         style="stop-color:#23d3ff;stop-opacity:1"
         offset="0"
         id="stop833" />
      <stop
         style="stop-color:#90e9ff;stop-opacity:0.96862745"
         offset="1"
         id="stop835" />
    </linearGradient>
    <linearGradient
       id="linearGradient829">
      <stop
         style="stop-color:#91e5ff;stop-opacity:1"
         offset="0"
         id="stop825" />
      <stop
         style="stop-color:#00c6fa;stop-opacity:1"
         offset="1"
         id="stop827" />
    </linearGradient>
    <linearGradient
       xlink:href="#linearGradient829"
       id="linearGradient831"
       x1="62.280739"
       y1="103.5916"
       x2="29.818823"
       y2="258.93726"
       gradientUnits="userSpaceOnUse"
       gradientTransform="rotate(-30,7.9374999,-29.623153)" />
    <linearGradient
       xlink:href="#linearGradient837"
       id="linearGradient839"
       x1="168.92973"
       y1="58.57259"
       x2="115.96797"
       y2="207.63593"
       gradientUnits="userSpaceOnUse" />
    <linearGradient
       xlink:href="#linearGradient919"
       id="linearGradient921"
       x1="0"
       y1="297"
       x2="508"
       y2="11.25001"
       gradientUnits="userSpaceOnUse" />
    <clipPath
       clipPathUnits="userSpaceOnUse"
       id="clipPath32295">
      <path
         style="fill:none;stroke:#000000;stroke-width:0.264583px;stroke-linecap:butt;stroke-linejoin:miter;stroke-opacity:1"
         d="m 187.61923,233.95465 42.2426,-56.19542 -63.85351,-11.81537 65.96398,-22.52258 c -8.46385,-20.57668 -28.64005,-11.02271 -10.02985,-66.463508 34.46274,-55.461873 69.44429,-2.971922 63.56149,-10.80547 21.22412,0.192876 4.22369,40.471578 7.62739,65.150528 l -8.4176,12.11845 55.45312,17.43768 -48.94237,27.96706 c 0,0 47.67112,51.48481 48.94237,54.02727 1.27121,2.54244 -129.02987,34.95885 -129.02987,34.95885 z"
         id="path32297"
         sodipodi:nodetypes="ccccccccccscc"
         clip-path="none" />
    </clipPath>
    <linearGradient
       xlink:href="#linearGradient837"
       id="linearGradient839-9"
       x1="168.92973"
       y1="58.57259"
       x2="115.96797"
       y2="207.63593"
       gradientUnits="userSpaceOnUse" />
    <clipPath
       clipPathUnits="userSpaceOnUse"
       id="clipPath32291">
      <path
         style="fill:none;stroke:#000000;stroke-width:0.264583px;stroke-linecap:butt;stroke-linejoin:miter;stroke-opacity:1"
         d="m 34.561116,97.576918 4.183809,-5.56573 -6.324206,-1.170223 6.533232,-2.230692 c -0.83828,-2.037963 -2.83658,-1.091716 -0.993381,-6.582706 3.413273,-5.493078 6.877931,-0.294346 6.295284,-1.0702 2.102088,0.0191 0.418325,4.008403 0.755436,6.452666 l -0.8337,1.20024 5.492211,1.727071 -4.847371,2.769925 c 0,0 4.721463,5.09918 4.847371,5.350992 0.125904,0.251809 -12.779431,3.462409 -12.779431,3.462409 z"
         id="path32293"
         sodipodi:nodetypes="ccccccccccscc"
         clip-path="none" />
    </clipPath>
    <clipPath
       clipPathUnits="userSpaceOnUse"
       id="clipPath32667">
      <path
         style="fill:none;stroke:#000000;stroke-width:0.264583px;stroke-linecap:butt;stroke-linejoin:miter;stroke-opacity:1"
         d="m 34.561116,97.576918 4.183809,-5.56573 -6.324206,-1.170223 6.533232,-2.230692 c -0.83828,-2.037963 -2.83658,-1.091716 -0.993381,-6.582706 3.413273,-5.493078 6.877931,-0.294346 6.295284,-1.0702 2.102088,0.0191 0.418325,4.008403 0.755436,6.452666 l -0.8337,1.20024 5.492211,1.727071 -4.847371,2.769925 c 0,0 4.721463,5.09918 4.847371,5.350992 0.125904,0.251809 -12.779431,3.462409 -12.779431,3.462409 z"
         id="path32669"
         sodipodi:nodetypes="ccccccccccscc"
         clip-path="none" />
    </clipPath>
    <clipPath
       clipPathUnits="userSpaceOnUse"
       id="clipPath32671">
      <path
         style="fill:none;stroke:#000000;stroke-width:0.264583px;stroke-linecap:butt;stroke-linejoin:miter;stroke-opacity:1"
         d="m 187.61923,233.95465 42.2426,-56.19542 -63.85351,-11.81537 65.96398,-22.52258 c -8.46385,-20.57668 -28.64005,-11.02271 -10.02985,-66.463508 34.46274,-55.461873 69.44429,-2.971922 63.56149,-10.80547 21.22412,0.192876 4.22369,40.471578 7.62739,65.150528 l -8.4176,12.11845 55.45312,17.43768 -48.94237,27.96706 c 0,0 47.67112,51.48481 48.94237,54.02727 1.27121,2.54244 -129.02987,34.95885 -129.02987,34.95885 z"
         id="path32673"
         sodipodi:nodetypes="ccccccccccscc"
         clip-path="none" />
    </clipPath>
  </defs>
  <g
     inkscape:label="Camada 1"
     inkscape:groupmode="layer"
     id="layer1"
     transform="translate(-32.420719,-89.094346)">
    <g
       id="g12"
       transform="matrix(0.01919675,0,0,-0.01919675,43.110029,99.89845)"
       clip-path="none"
       style="fill:#ffffff;stroke-width:1.8377">
      <path
         d="M 847.848,483.648 V 133.266 L 565.625,483.648 H 491.121 V 5.91016 h 76.613 V 355.309 L 850.566,5.91016 h 77.883 V 483.648 h -80.601"
         style="fill:#ffffff;fill-opacity:1;fill-rule:nonzero;stroke:none;stroke-width:1.8377"
         id="path14" />
      <path
         d="M 1016.79,483.648 V 5.91016 h 99.12 V 483.648 h -99.12"
         style="fill:#ffffff;fill-opacity:1;fill-rule:nonzero;stroke:none;stroke-width:1.8377"
         id="path16" />
      <path
         d="m 3747.83,212.395 -194.56,336.054 -1.65,2.801 c -0.07,0.191 -0.18,0.383 -0.3,0.551 -4.3,6.219 -11.2,10.359 -19.13,10.914 -0.62,0.074 -1.19,0.094 -1.81,0.094 -0.54,0 -1.07,-0.02 -1.57,-0.094 h -244.18 -0.54 c -0.46,0 -0.91,0 -1.38,-0.02 -0.03,0 -0.03,0 -0.07,0 -0.84,-0.019 -1.77,-0.117 -2.65,-0.308 -0.08,0 -0.11,0 -0.23,0 -0.35,-0.098 -0.76,-0.157 -1.15,-0.227 -0.49,-0.137 -0.96,-0.23 -1.42,-0.387 -0.19,-0.058 -0.38,-0.132 -0.58,-0.171 -5.13,-1.629 -10.35,-5.118 -15.98,-11.118 L 2948.77,213.715 c 0,0 -0.81,-0.707 -1.84,-1.914 -0.39,-0.496 -0.8,-1.055 -1.23,-1.688 -1.19,-1.898 -1.88,-4.121 -1.88,-6.461 0,-6.597 5.22,-11.961 11.7,-12.23 0.22,0 0.46,0 0.68,0 0.12,0 147.94,-0.059 148.1,-0.059 2.15,0 3.94,-1.761 3.94,-3.968 0,-1.016 -0.42,-1.954 -1.03,-2.61 0,0 0,0 0,-0.019 0,0 0,-0.039 0.04,-0.039 L 2957.47,24.4102 c -0.46,-0.4571 -0.88,-0.9219 -1.27,-1.4024 -1.1,-1.3008 -1.91,-2.664 -2.49,-3.9492 -0.34,-1.0547 -0.61,-2.168 -0.61,-3.3164 0,-3.293 1.61,-6.25001 4.03,-8.05079 1.76,-1.13282 3.98,-1.85938 6.59,-2.08985 0.62,-0.05859 1.16,-0.09765 1.77,-0.09765 h 100.84 0.35 c 5.52,0 11.93,2.28125 17.14,7.32419 0.16,0.0977 0.34,0.2305 0.46,0.3672 L 3242.3,183.406 c 0.99,0.824 1.65,2.035 1.65,3.41 0,2.497 -2.04,4.547 -4.52,4.547 -0.2,0 -85.63,-0.078 -85.63,0 -2.23,0.289 -3.92,2.168 -3.92,4.43 0,1.094 0.39,2.09 1.08,2.875 0,0.02 0,0.02 0,0.078 l 166.49,179.336 c 0.58,0.656 1.23,1.211 1.89,1.727 2.11,2.203 5.02,3.605 8.28,3.605 4.06,0 7.59,-2.09 9.66,-5.273 0.04,0 94.36,-163.024 94.36,-163.024 l 9.67,-16.699 c 0.08,-0.039 0.12,-0.137 0.12,-0.172 l 0.42,-0.691 c 0,0 0,0 -0.08,0 0.23,-0.539 0.34,-1.094 0.34,-1.684 0,-2.437 -1.91,-4.375 -4.32,-4.449 -0.04,0 -86.94,-0.156 -87.06,-0.156 -3.17,-0.133 -5.71,-2.758 -5.71,-5.942 0,-1.422 0.46,-2.187 1.27,-3.722 l 94.21,-163.0434 0.69,-1.1484 c 3.92,-6.5743 10.81,-11.17973 18.83,-11.90629 h 4.56 192.45 0.08 c 2.34,0.03906 4.45,0.34765 6.33,0.9375 5.21,2.10937 8.9,7.17189 8.9,13.11329 0,1.9414 -0.39,3.8008 -1.08,5.4453 l -1.8,3.0742 -91.53,157.3668 c 0,0.055 -0.42,1.266 -0.42,1.954 h 0.04 l -0.04,0.039 c 0,2.168 1.73,3.851 3.87,3.851 v 0 c 0.27,0.078 0.61,0.137 1,0.137 0,0 154.3,0 154.38,0 h 0.04 v 0 c 0,0 0,0 0.04,0 h 1.03 c 1.3,0 2.53,0.23 3.68,0.59 0.03,0.019 0.11,0.058 0.15,0.058 0.35,0.137 0.77,0.27 1.15,0.461 0.16,0.039 0.28,0.117 0.38,0.196 0.04,0.031 0.08,0.031 0.08,0.031 0.08,0.039 0.24,0.078 0.34,0.176 0.47,0.25 0.97,0.558 1.43,0.859 0.12,0.098 0.19,0.16 0.26,0.238 0.42,0.301 0.85,0.688 1.23,1.051 0.12,0.133 0.31,0.305 0.46,0.5 0.35,0.363 0.66,0.727 0.96,1.129 0.23,0.383 0.5,0.746 0.77,1.172 0.3,0.555 0.62,1.094 0.88,1.664 0.2,0.535 0.38,1.094 0.54,1.691 0.34,1.95 0.61,6.117 -2.35,11.157 z m -300.04,179.148 v 0 c -0.08,-0.039 -0.08,-0.059 -0.15,-0.098 H 3211.5 c 0,0.039 -0.04,0.059 -0.04,0.059 -2.29,0.172 -4.06,2.109 -4.06,4.43 0,1.113 0.39,2.148 1.12,2.953 0,0 0,0 -0.04,0.035 l 139.19,150.371 c 1.07,1.133 2.26,2.109 3.56,2.914 1.89,1.344 4.18,2.168 6.72,2.168 0.07,0 0.42,-0.02 0.5,-0.02 0.3,0 0.6,-0.078 0.84,-0.117 3.38,-0.398 6.33,-2.242 8.12,-4.945 0.04,0 85.36,-148.758 85.36,-148.758 0.04,-0.078 0.12,-0.191 0.12,-0.289 0.5,-0.828 0.76,-1.824 0.76,-2.797 0,-3.277 -2.64,-5.906 -5.86,-5.906"
         style="fill:#ffffff;fill-opacity:1;fill-rule:nonzero;stroke:none;stroke-width:1.8377"
         id="path18" />
      <path
         d="M 2398.06,484.184 H 2137.2 L 2047.77,6.09766 h 286.82 l 15,81.25004 h -157.02 l 23.85,127.7113 h 127.72 l 14.99,81.254 h -127.68 l 19.86,106.597 h 131.76 l 14.99,81.274 v 0"
         style="fill:#ffffff;fill-opacity:1;fill-rule:nonzero;stroke:none;stroke-width:1.8377"
         id="path20" />
      <path
         d="m 2645.64,484.184 h -166.6 L 2389.54,6.09766 h 161.86 c 156.37,0 291.65,105.14434 291.65,277.35134 0,118.813 -68.33,200.735 -197.41,200.735 z M 2568.5,87.3477 h -34.16 l 58.7,315.5623 h 35.55 c 51.88,0 81.94,-59.472 81.94,-120.937 0,-126.903 -81.94,-194.6253 -142.03,-194.6253"
         style="fill:#ffffff;fill-opacity:1;fill-rule:nonzero;stroke:none;stroke-width:1.8377"
         id="path22" />
      <path
         d="m 1418.54,87.3477 c -51.96,0 -81.99,59.4923 -81.99,120.9253 0,126.922 81.99,194.618 142.03,194.618 l 161.51,-0.02 15.18,81.274 h -159.59 c -156.37,0 -291.61,-105.141 -291.61,-277.309 0,-118.8321 68.29,-200.75397 197.4,-200.75397 h 165.15 l 15,81.24997 -163.08,0.0157"
         style="fill:#ffffff;fill-opacity:1;fill-rule:nonzero;stroke:none;stroke-width:1.8377"
         id="path24" />
      <path
         d="m 1935.16,218.551 c 44.44,21.875 101.11,60.758 101.11,144.023 0,50.594 -33.51,121.61 -134.55,121.61 H 1710.57 L 1621.07,6.09766 h 129.07 l 34.09,180.94934 h 36.93 L 1869.74,6 h 141.69 z m -98.32,49.75 h -38.92 l 25.96,134.609 h 33.51 c 27.3,0 50.46,-27.992 50.46,-56.672 0,-44.347 -36.12,-77.937 -71.01,-77.937"
         style="fill:#ffffff;fill-opacity:1;fill-rule:nonzero;stroke:none;stroke-width:1.8377"
         id="path26" />
      <path
         d="M 305.113,483.82 V 222.016 C 302.887,115.211 282.184,53.2031 202.691,53.2031 c -0.343,0 -1.683,0 -2.031,0 -79.488,0 -100.234,62.0079 -102.4178,168.8129 V 483.82 H 0 V 191.84 C 0,88.3125 38.1953,26.2852 126.156,5.75391 126.156,5.75391 151,0 195.023,0 c 0.231,0 13.075,0 13.305,0 44.02,0 64.801,5.83203 64.801,5.83203 C 365.352,24.3125 403.313,88.3125 403.313,191.84 v 291.98 h -98.2"
         style="fill:#ffffff;fill-opacity:1;fill-rule:nonzero;stroke:none;stroke-width:1.8377"
         id="path28" />
    </g>
    <g
       id="layer1-6"
       transform="matrix(0.05389491,0,0,0.05389491,23.473716,86.948011)"
       style="stroke-width:18.5545"
       clip-path="url(#clipPath32671)">
      <rect
         style="opacity:1;fill:none;fill-opacity:1;stroke:none;stroke-width:54.0018;stroke-linecap:butt;stroke-linejoin:round;stroke-miterlimit:4;stroke-dasharray:none;stroke-opacity:1"
         id="rect900"
         width="508"
         height="285.75"
         x="0"
         y="11.25001" />
      <path
         style="opacity:0.05;fill:#000000;fill-opacity:1;stroke:none;stroke-width:284.407;stroke-linecap:butt;stroke-linejoin:round;stroke-miterlimit:4;stroke-dasharray:none"
         d="m 253.23354,60.962736 c -10.63461,-0.05403 -21.02316,3.863488 -26.11933,12.624038 -9.01141,14.852518 -9.60329,35.196786 -8.6093,42.971536 l 13.4674,26.86296 c -1.2445,1.01515 -2.3308,2.20243 -3.2272,3.51762 -1.1652,1.70957 -3.69216,5.81225 -9.24748,9.0041 -5.55535,3.19186 -14.11685,5.4405 -27.37406,2.98276 a 0.99119509,0.99119509 0 0 0 -0.92604,1.62936 c 11.27072,12.8213 25.8101,17.76695 38.6643,17.20412 -10.34698,16.42914 -20.75804,32.38123 -29.75062,46.57958 -0.84736,9.74256 13.70944,19.76527 24.41038,23.93084 l 30.00801,-59.85526 30.00745,59.85526 c 10.70094,-4.16557 25.25723,-14.18828 24.40988,-23.93084 -8.99258,-14.19834 -19.40312,-30.15045 -29.75012,-46.57958 12.85422,0.56283 27.39308,-4.38282 38.6638,-17.20412 a 0.99119511,0.99119511 0 0 0 -0.92554,-1.62936 c -13.25721,2.45774 -21.81921,0.2091 -27.37456,-2.98276 -5.55532,-3.19185 -8.08228,-7.29452 -9.24748,-9.0041 -0.89641,-1.31519 -1.98218,-2.50247 -3.22667,-3.51762 l 13.46737,-26.86296 c 0.99401,-7.77475 0.40161,-28.119018 -8.60981,-42.971536 -5.79024,-8.008427 -17.38966,-12.566517 -28.71038,-12.624038 z m -0.17675,18.715138 c 8.45297,-0.05594 16.57231,3.002082 25.17212,7.225916 -5.07632,14.84585 -13.61935,32.02603 -23.69984,49.8874 -9.99366,-17.70753 -18.479,-34.74778 -23.57065,-49.505511 7.90157,-5.38762 15.11464,-7.561593 22.09837,-7.607805 z"
         id="path923" />
      <g
         id="g894"
         transform="matrix(1.1586498,0,0,1.1586498,85.684547,5.1925148)"
         style="stroke-width:18.5545">
        <path
           id="rect820"
           d="m 121.60751,58.572588 c 9.08053,-15.609803 37.63025,-13.40482 47.32223,0 l 0.92058,13.587194 c -16.44141,-8.56677 -30.33095,-13.847311 -48.80977,1.133929 z"
           style="opacity:1;fill:#00bae8;fill-opacity:1;stroke:none;stroke-width:245.465;stroke-linecap:butt;stroke-linejoin:round;stroke-miterlimit:4;stroke-dasharray:none"
           clip-path="none" />
        <path
           id="rect815"
           d="m 114.17693,95.660103 c -0.8579,-6.710185 -0.34694,-24.268698 7.43058,-37.087515 6.94559,34.051453 45.30341,90.125312 70.62782,130.109852 0.73133,8.40855 -11.83214,17.05919 -21.06784,20.65438 z"
           style="opacity:1;fill:url(#linearGradient831);fill-opacity:1;stroke:#ffffff;stroke-width:2.45465;stroke-linecap:butt;stroke-linejoin:round;stroke-miterlimit:4;stroke-dasharray:none"
           clip-path="none" />
        <path
           style="opacity:1;fill:url(#linearGradient839);fill-opacity:1;stroke:#ffffff;stroke-width:2.45465;stroke-linecap:butt;stroke-linejoin:round;stroke-miterlimit:4;stroke-dasharray:none;stroke-opacity:1"
           d="m 176.36032,95.660103 c 0.8579,-6.710185 0.34694,-24.268698 -7.43058,-37.087515 -6.9456,34.051453 -45.30342,90.125312 -70.627822,130.109852 -0.731328,8.40855 11.832142,17.05919 21.067842,20.65438 z"
           id="use818"
           clip-path="none" />
      </g>
      <g
         id="g850"
         transform="matrix(0.68106816,0,0,0.68106816,85.810614,70.321909)"
         style="display:inline;stroke-width:18.5545">
        <path
           style="opacity:1;fill:#1a1a1a;fill-opacity:1;stroke:none;stroke-width:119.973;stroke-linecap:butt;stroke-linejoin:round;stroke-miterlimit:4;stroke-dasharray:none;stroke-opacity:1"
           d="m 878.72266,377.38477 c -3.58961,-0.0531 -7.23783,0.24825 -10.89844,0.9414 -14.64246,2.77267 -26.81192,11.241 -34.59766,22.66406 -3.80091,5.57664 -12.04447,18.95924 -30.16601,29.3711 -18.12152,10.41188 -46.04979,17.7457 -89.29493,9.72851 a 3.2332887,3.2332887 0 0 0 -3.01953,5.31641 c 68.29863,77.69484 173.40108,66.76506 211.68164,16.58789 a 3.2332887,3.2332887 0 0 0 0.10352,-0.13867 c 7.78571,-11.42304 11.21212,-25.84578 8.43945,-40.48828 -2.77264,-14.64246 -11.23514,-26.80995 -22.6582,-34.59571 -8.56729,-5.8393 -18.82099,-9.22718 -29.58984,-9.38671 z"
           transform="matrix(0.45011563,0,0,0.45011563,-165.95683,-68.773246)"
           id="path843"
           clip-path="none" />
        <use
           height="100%"
           width="100%"
           transform="matrix(-1,0,0,1,493.89886,0)"
           id="use846"
           xlink:href="#path843"
           y="0"
           x="0"
           style="stroke-width:18.5545"
           clip-path="none" />
      </g>
    </g>
    <path
       style="fill:none;fill-opacity:1;stroke:none;stroke-width:0.486223"
       d="M 16.62196,91.145854 V 81.13635 h 17.721228 17.721228 v 3.577891 c 0,1.967839 0.01884,6.472113 0.04187,10.009502 l 0.04187,6.431617 H 34.385055 16.62196 Z m 20.197947,6.268834 c 0.623764,-0.316084 1.142579,-0.822433 1.245242,-1.215326 0.02806,-0.107387 -0.180164,-0.474885 -0.891722,-1.573821 -0.510582,-0.788546 -0.983702,-1.525789 -1.051378,-1.638316 l -0.123047,-0.204597 h 0.408781 c 0.522219,0 1.114615,-0.182999 1.591211,-0.491546 0.459795,-0.297672 0.865821,-0.674539 0.832955,-0.773139 -0.01674,-0.05022 -0.264255,-0.0761 -0.77727,-0.08124 -0.693189,-0.007 -0.781796,-0.02183 -1.120591,-0.188196 -0.269169,-0.132167 -0.444781,-0.279662 -0.654465,-0.549674 -0.370152,-0.47665 -0.706487,-0.649402 -1.186795,-0.609571 -0.214366,0.01778 -0.411732,0.07838 -0.522868,0.160544 l -0.178522,0.131987 -0.302343,-0.153067 c -0.354003,-0.179218 -0.762656,-0.199273 -1.071758,-0.05259 -0.11645,0.05526 -0.372169,0.283216 -0.568264,0.506572 -0.208291,0.237246 -0.490667,0.476856 -0.679126,0.576273 -0.299726,0.158109 -0.37725,0.170169 -1.093781,0.170169 -0.539097,0 -0.771186,0.02178 -0.771173,0.07237 3.3e-5,0.126087 0.696546,0.714767 1.066888,0.901716 0.615286,0.310595 1.03022,0.400537 1.669491,0.361881 0.646668,-0.0391 1.151811,-0.202001 1.482511,-0.478081 l 0.218673,-0.182557 0.283604,0.196456 c 0.155982,0.108053 0.292504,0.201075 0.303382,0.206722 0.01088,0.0056 -0.08119,0.210759 -0.204596,0.455811 -0.123407,0.245054 -0.224376,0.48047 -0.224376,0.523147 0,0.08043 1.957101,4.080436 1.99645,4.080436 0.01222,0 0.157524,-0.06856 0.322887,-0.152358 z M 33.026988,86.334557 c 0.07054,-0.04941 0.30258,-0.148558 0.515644,-0.220334 0.56637,-0.190796 1.112977,-0.172617 1.776325,0.05908 0.294305,0.102796 0.561232,0.194262 0.593173,0.203255 0.06822,0.01921 0.346329,-0.893095 0.305609,-1.002511 -0.04265,-0.11461 -0.644658,-0.507233 -0.961735,-0.627237 -0.200972,-0.07606 -0.486285,-0.108575 -0.981906,-0.111895 -0.678921,-0.0046 -0.710715,0.0016 -1.127635,0.215654 -0.23596,0.121184 -0.483565,0.294166 -0.550233,0.384402 -0.120016,0.162444 -0.119846,0.169146 0.01712,0.676744 0.07608,0.281971 0.171421,0.512677 0.21186,0.512677 0.04044,0 0.131239,-0.04042 0.201779,-0.08983 z"
       id="path28161"
       clip-path="url(#clipPath32667)"
       transform="matrix(0.54415982,0,0,0.54415982,14.778666,46.459536)" />
  </g>
</svg>
